Coordinates
version=1
nRows=10
nColumns=63
inDegrees=yes

Units are S.I. units (second, meters, Newtons, ...)
If the header above contains a line with 'inDegrees', this indicates whether rotational values are in degrees (yes) or radians (no).

endheader
time	pelvis_tilt	pelvis_list	pelvis_rotation	pelvis_tx	pelvis_ty	pelvis_tz	hip_flexion_r	hip_adduction_r	hip_rotation_r	knee_angle_r	knee_angle_r_beta	ankle_angle_r	subtalar_angle_r	mtp_angle_r	hip_flexion_l	hip_adduction_l	hip_rotation_l	knee_angle_l	knee_angle_l_beta	ankle_angle_l	subtalar_angle_l	mtp_angle_l	L5_S1_Flex_Ext	L5_S1_Lat_Bending	L5_S1_axial_rotation	L4_L5_Flex_Ext	L4_L5_Lat_Bending	L4_L5_axial_rotation	L3_L4_Flex_Ext	L3_L4_Lat_Bending	L3_L4_axial_rotation	L2_L3_Flex_Ext	L2_L3_Lat_Bending	L2_L3_axial_rotation	L1_L2_Flex_Ext	L1_L2_Lat_Bending	L1_L2_axial_rotation	L1_T12_Flex_Ext	L1_T12_Lat_Bending	L1_T12_axial_rotation	Abs_r3	Abs_r2	Abs_r1	Abs_t1	Abs_t2	neck_flexion	neck_bending	neck_rotation	arm_flex_r	arm_add_r	arm_rot_r	elbow_flex_r	pro_sup_r	wrist_flex_r	wrist_dev_r	arm_flex_l	arm_add_l	arm_rot_l	elbow_flex_l	pro_sup_l	wrist_flex_l	wrist_dev_l
      2.77966102	     -2.58729554	     -3.91178652	     80.78871279	      0.10534407	      1.04099076	      0.32714494	      9.43358758	     -2.44661726	     -9.79573244	     18.72369536	      0.32679013	     42.83611104	     18.33616355	      0.00000000	      4.36625286	      1.58674733	     -1.29870161	     12.13451635	      0.21178726	     27.38975475	     -7.88669196	      0.00000000	     -0.37683911	      0.05674068	      1.63327949	     -0.69982791	      0.07546510	      1.73535946	     -0.61910897	      0.13795929	      1.73535946	     -0.43068942	      0.13795929	      1.42911956	     -0.34993280	      0.11570559	      1.32703959	     -0.21532587	      0.08789131	      1.22495962	     -2.69172407	      0.64186192	      9.08381055	      0.00000000	      0.00000000	     23.72264409	     -0.47889723	     -1.98753158	      1.80566456	    -15.49719620	    103.99529127	     10.72880922	      5.06455530	     -3.90744357	    -10.68058721	      8.02976775	    -13.92335542	    122.71530224	     13.25005756	      5.98805810	     -5.27182609	     -3.28802092
      2.79661017	     -2.64677594	     -3.84145253	     80.75246632	      0.10532921	      1.04111206	      0.32712509	      9.35083312	     -2.51259006	     -9.75465671	     18.69262901	      0.32624792	     42.76676171	     18.35640760	      0.00000000	      4.31146078	      1.68196803	     -1.34750753	     12.09503001	      0.21109810	     27.15595012	     -8.16176637	      0.00000000	     -0.37887788	      0.05044874	      1.60708796	     -0.70361412	      0.06709682	      1.70753096	     -0.62245848	      0.12266107	      1.70753096	     -0.43301953	      0.12266107	      1.40620197	     -0.35182600	      0.10287507	      1.30575897	     -0.21649082	      0.07814510	      1.20531597	     -2.70628684	      0.57068624	      8.93814112	      0.00000000	      0.00000000	     23.56768278	     -0.46260530	     -1.91486097	      1.91805281	    -15.48538939	    104.36969429	     10.76510084	      5.04218315	     -4.02166472	    -10.52783517	      8.03874604	    -13.93355616	    123.80565931	     13.30119591	      5.49918379	     -5.20365351	     -2.96972319
      2.81355932	     -2.69899725	     -3.75441122	     80.74883316	      0.10519802	      1.04126585	      0.32705439	      9.22535980	     -2.59767975	     -9.84965145	     18.67155594	      0.32588013	     42.57015288	     18.35883219	      0.00000000	      4.23933666	      1.74293695	     -1.69193187	     12.05529345	      0.21040456	     27.08244382	     -7.94426621	      0.00000000	     -0.37854538	      0.04546530	      1.55365089	     -0.70299662	      0.06046885	      1.65075407	     -0.62191220	      0.11054433	      1.65075407	     -0.43263951	      0.11054433	      1.35944453	     -0.35151724	      0.09271284	      1.26234135	     -0.21630083	      0.07042575	      1.16523817	     -2.70391179	      0.51431258	      8.64094016	      0.00000000	      0.00000000	     23.36470069	     -0.45361961	     -1.82260712	      2.04130547	    -15.46634429	    104.64523536	     10.73400555	      5.25247513	     -4.01805498	    -10.37173468	      7.90851355	    -14.07685939	    123.23209482	     13.54654004	      5.09085926	     -5.04860691	     -2.60745178
      2.83050847	     -2.69380298	     -3.63159787	     80.99197458	      0.10463840	      1.04155272	      0.32685288	      8.96843587	     -2.68073987	    -10.27644117	     18.57906560	      0.32426587	     42.28201978	     18.38337840	      0.00000000	      4.11434302	      1.82683563	     -1.23562374	     11.93816645	      0.20836031	     26.94364026	     -8.40731937	      0.00000000	     -0.38004786	      0.04806104	      1.42597079	     -0.70578689	      0.06392119	      1.51509397	     -0.62438063	      0.11685562	      1.51509397	     -0.43435670	      0.11685562	      1.24772444	     -0.35291245	      0.09800608	      1.15860127	     -0.21715935	      0.07444656	      1.06947809	     -2.71464388	      0.54367613	      7.93082176	      0.00000000	      0.00000000	     23.08760037	     -0.43328396	     -1.66301230	      2.28381920	    -15.54789044	    105.31539452	     10.85985854	      5.27931710	     -4.02557027	    -10.30884145	      7.59941673	    -14.40349444	    120.39427702	     14.15994947	      5.10899801	     -5.11259414	     -2.26381867
      2.84745763	     -2.80670301	     -3.54263439	     80.86031642	      0.10456518	      1.04177290	      0.32662122	      8.86288198	     -2.83984306	    -10.29805457	     18.60726038	      0.32475796	     42.01759672	     18.34435814	      0.00000000	      3.92363386	      2.03136201	     -0.86527561	     11.57876048	      0.20208749	     26.76295852	     -9.19818135	      0.00000000	     -0.36853053	      0.03584875	      1.38003202	     -0.68439805	      0.04767884	      1.46628402	     -0.60545881	      0.08716265	      1.46628402	     -0.42119354	      0.08716265	      1.20752801	     -0.34221745	      0.07310277	      1.12127601	     -0.21057835	      0.05552971	      1.03502401	     -2.63237673	      0.40552823	      7.67532406	      0.00000000	      0.00000000	     22.70618024	     -0.41423509	     -1.66380224	      2.37222162	    -15.59330431	    105.14850376	     11.03342704	      5.34694964	     -4.11535856	    -10.16736268	      7.33934000	    -14.71263479	    118.20144991	     14.71312699	      4.92595598	     -5.16648137	     -2.09865279
      2.86440678	     -2.89201706	     -3.44607888	     80.65219324	      0.10475645	      1.04198158	      0.32672730	      8.79524365	     -2.94939736	    -10.23104982	     18.67996081	      0.32602682	     41.74406630	     18.26499375	      0.00000000	      3.85529295	      2.04999615	     -2.00031423	     11.48879263	      0.20051726	     27.39422571	     -7.89428915	      0.00000000	     -0.36773403	      0.02347397	      1.35038799	     -0.68291887	      0.03122038	      1.43478724	     -0.60415024	      0.05707461	      1.43478724	     -0.42028322	      0.05707461	      1.18158950	     -0.34147782	      0.04786812	      1.09719025	     -0.21012322	      0.03636118	      1.01279100	     -2.62668740	      0.26554225	      7.51045291	      0.00000000	      0.00000000	     22.44193165	     -0.38460209	     -1.67299509	      2.52264926	    -15.62149543	    104.81624485	     11.20660082	      5.68460870	     -4.16416863	     -9.98990877	      7.20502220	    -14.95978180	    116.93506207	     15.14598635	      4.62325950	     -5.21810558	     -2.21486139
      2.88135593	     -2.96131833	     -3.40046460	     80.67027472	      0.10483008	      1.04213335	      0.32696055	      8.75365814	     -3.05536355	    -10.42128279	     18.74770008	      0.32720909	     41.49775865	     18.21576743	      0.00000000	      3.94046861	      1.99204514	     -3.38557596	     11.59141812	      0.20230841	     28.33403705	     -5.94094341	      0.00000000	     -0.36686010	      0.00886184	      1.29117130	     -0.68129589	      0.01178624	      1.37186950	     -0.60271446	      0.02154667	      1.37186950	     -0.41928441	      0.02154667	      1.12977488	     -0.34066629	      0.01807106	      1.04907668	     -0.20962386	      0.01372698	      0.96837847	     -2.62044501	      0.10024686	      7.18110740	      0.00000000	      0.00000000	     22.29412882	     -0.28704727	     -1.77718277	      2.73323021	    -15.55299623	    105.18056854	     11.27171196	      5.57431280	     -4.14379589	     -9.77822438	      7.20253426	    -15.13652186	    116.79206969	     15.40953419	      4.34816897	     -5.27105747	     -2.45277164
      2.89830508	     -3.09176808	     -3.39561966	     80.68191112	      0.10504161	      1.04217908	      0.32721403	      8.80275998	     -3.21267039	    -10.61856478	     18.88574800	      0.32961848	     41.36343443	     18.20574266	      0.00000000	      4.06186611	      1.99522992	     -4.61112872	     11.67863734	      0.20383067	     29.21705302	     -4.19966568	      0.00000000	     -0.36338541	     -0.01535483	      1.25145340	     -0.67484304	     -0.02042193	      1.32966924	     -0.59700589	     -0.03733375	      1.32966924	     -0.41531318	     -0.03733375	      1.09502173	     -0.33743969	     -0.03131158	      1.01680589	     -0.20763842	     -0.02378464	      0.93859005	     -2.59562564	     -0.17369696	      6.96020839	      0.00000000	      0.00000000	     22.21409873	     -0.09012779	     -1.90291532	      2.91094717	    -15.42232078	    105.59688104	     11.27558796	      5.39054030	     -4.00994479	     -9.52130330	      7.22638587	    -15.28171249	    117.02581528	     15.47581682	      4.62326288	     -5.33742930	     -2.73788927
      2.91525424	     -3.21231284	     -3.39838716	     80.65656745	      0.10523056	      1.04219272	      0.32745568	      8.88501928	     -3.34662416	    -10.68347164	     19.03973441	      0.33230605	     41.34623529	     18.19185367	      0.00000000	      4.15732324	      2.04978317	     -5.24954568	     11.73787781	      0.20486462	     29.83101874	     -3.35205944	      0.00000000	     -0.36476996	     -0.03837428	      1.25284239	     -0.67741429	     -0.05103779	      1.33114503	     -0.59928057	     -0.09330322	      1.33114503	     -0.41689559	     -0.09330322	      1.09623709	     -0.33872538	     -0.07825283	      1.01793444	     -0.20842955	     -0.05944176	      0.93963179	     -2.60551534	     -0.43409753	      6.96793350	      0.00000000	      0.00000000	     22.25296235	      0.06171165	     -2.14939463	      2.95416479	    -15.34853094	    104.87686837	     11.39989009	      5.68198298	     -4.00008621	     -9.27166204	      7.47394061	    -15.25632455	    118.97913686	     15.34648621	      4.62740909	     -5.41828033	     -3.07371625
      2.93220339	     -3.31697329	     -3.40017802	     80.60587441	      0.10546065	      1.04218442	      0.32746864	      8.97144714	     -3.44520672	    -10.62683053	     19.18012214	      0.33475628	     41.46973449	     18.20365430	      0.00000000	      4.17531576	      2.16085161	     -5.21428684	     11.70001759	      0.20420383	     30.10617914	     -3.43428733	      0.00000000	     -0.36418109	     -0.05986751	      1.26839387	     -0.67632070	     -0.07962378	      1.34766848	     -0.59831311	     -0.14556186	      1.34766848	     -0.41622257	     -0.14556186	      1.10984463	     -0.33817856	     -0.12208182	      1.03057002	     -0.20809308	     -0.09273477	      0.95129540	     -2.60130911	     -0.67723321	      7.05442618	      0.00000000	      0.00000000	     22.29881304	      0.20336191	     -2.44877742	      2.97061834	    -15.23644173	    104.76212118	     11.40839292	      5.51292909	     -3.90179643	     -9.03892523	      7.66100614	    -15.17076119	    120.79113882	     15.07504363	      5.26270087	     -5.55249521	     -3.23370474
